<mxfile host="app.diagrams.net" modified="2023-09-02T17:38:38.591Z" agent="Mozilla/5.0 (X11; Linux x86_64) AppleWebKit/537.36 (KHTML, like Gecko) Chrome/113.0.0.0 Safari/537.36" etag="4zzqo7uxQM-msKYdRv3s" version="21.7.2" type="github">
  <diagram name="第 1 页" id="K3nBhqF5XBH1DPqpZTJw">
    <mxGraphModel dx="1705" dy="980" grid="0" gridSize="10" guides="1" tooltips="1" connect="1" arrows="1" fold="1" page="1" pageScale="1" pageWidth="3300" pageHeight="4681" math="0" shadow="0">
      <root>
        <mxCell id="0" />
        <mxCell id="1" parent="0" />
      </root>
    </mxGraphModel>
  </diagram>
</mxfile>
